<?xml version="1.0" encoding="UTF-8"?>
<!DOCTYPE svg PUBLIC "-//W3C//DTD SVG 1.1//EN" "http://www.w3.org/Graphics/SVG/1.1/DTD/svg11.dtd">
<svg version="1.1" xmlns="http://www.w3.org/2000/svg" xmlns:xlink="http://www.w3.org/1999/xlink" x="0px" y="0px" width="90" height="90" viewBox="0, 0, 90, 90">
  <g id="Layer 1">
    <g>
      <path d="M45.5,82.999 C23.788,82.999 6.188,65.398 6.188,43.687 C6.188,21.975 23.788,4.374 45.5,4.374 C67.212,4.374 84.812,21.975 84.812,43.687 C84.812,65.398 67.212,82.999 45.5,82.999 z" fill="#3E4765"/>
      <path d="M45.5,82.999 C23.788,82.999 6.188,65.398 6.188,43.687 C6.188,21.975 23.788,4.374 45.5,4.374 C67.212,4.374 84.812,21.975 84.812,43.687 C84.812,65.398 67.212,82.999 45.5,82.999 z" fill-opacity="0" stroke="#3E4765" stroke-width="4"/>
    </g>
    <path d="M45.973,44.75 C46.215,33.753 47.1,11.71 21.523,25.311" fill-opacity="0" stroke="#FE4B1C" stroke-width="7"/>
    <path d="M33.048,54.75 C25.993,54.75 20.395,50.941 20.395,46.025 C20.395,41.11 25.583,35.713 40.148,36.55 C47.192,36.955 45.958,41.884 45.958,46.088 C45.958,51.003 40.104,54.75 33.048,54.75" fill-opacity="0" stroke="#FE4B1C" stroke-width="7"/>
    <path d="M46.064,42.793 C46.064,42.793 64.332,42.793 65.558,42.793" fill-opacity="0" stroke="#FE4B1C" stroke-width="7"/>
    <path d="M46.132,44.75 C45.89,33.753 45.005,11.711 70.605,25.311" fill-opacity="0" stroke="#FE4B1C" stroke-width="7"/>
    <path d="M45.996,46.25 C46.238,57.247 47.123,79.289 21.523,65.689" fill-opacity="0" stroke="#FE4B1C" stroke-width="7"/>
    <path d="M45.5,84.043 C22.718,84.043 4.25,65.575 4.25,42.793 C4.25,20.012 22.718,1.544 45.5,1.544 C68.282,1.544 86.75,20.012 86.75,42.793 C86.75,65.575 68.282,84.043 45.5,84.043 z" fill-opacity="0" stroke="#F54B1C" stroke-width="3"/>
  </g>
  <defs/>
</svg>
